<svg xmlns="http://www.w3.org/2000/svg" xmlns:xlink="http://www.w3.org/1999/xlink" xml:space="preserve" version="1.1" style="shape-rendering:geometricPrecision;text-rendering:geometricPrecision;image-rendering:optimizeQuality;" viewBox="0 0 677 846.25" x="0px" y="0px" fill-rule="evenodd" clip-rule="evenodd"><defs><style type="text/css">
   
    .fil0 {fill:black;fill-rule:nonzero}
   
  </style></defs><g><path class="fil0" d="M328 206c26,0 49,10 66,27 17,17 27,40 27,66 0,25 -10,49 -27,65 -6,6 -12,11 -19,15 1,0 3,0 4,1 14,4 27,10 40,17 13,-10 29,-16 47,-16 10,0 20,2 29,5 2,-6 3,-12 4,-19 2,-10 3,-20 3,-30 0,-47 -19,-90 -51,-120 -31,-31 -75,-50 -123,-50 -48,0 -91,19 -123,50 -31,30 -50,73 -50,120 0,39 13,74 35,103 15,-20 34,-36 56,-47 11,-6 23,-11 35,-14 -6,-4 -13,-9 -18,-15 -17,-16 -27,-40 -27,-65 0,-26 10,-49 27,-66 17,-17 40,-27 65,-27zm112 231c-3,-5 -2,-11 2,-14 4,-3 10,-2 13,2l11 14 11 -14c3,-4 9,-5 13,-2 4,3 5,9 2,14l-14 18 14 19c3,4 2,10 -2,13 -4,3 -10,3 -13,-2l-11 -14 -11 14c-3,5 -9,5 -13,2 -4,-3 -5,-9 -2,-13l14 -19 -14 -18zm-35 -25c-10,-6 -21,-11 -32,-14 -14,-4 -29,-6 -45,-6 -26,0 -51,6 -73,18 -21,11 -38,26 -52,44 1,1 1,2 2,3 32,31 75,50 123,50 15,0 29,-2 42,-5 11,-3 21,-6 30,-10 -6,-11 -10,-24 -10,-37 0,-16 6,-31 15,-43zm7 95c-12,6 -24,10 -37,13 -15,4 -31,6 -47,6 -53,0 -101,-21 -136,-55 -35,-35 -57,-82 -57,-134 0,-52 22,-100 57,-134 35,-34 83,-55 136,-55 53,0 102,21 137,55 35,34 56,82 56,134 0,11 -1,22 -3,34 -2,8 -4,17 -6,25 2,2 5,4 8,7 13,13 22,32 22,52 0,21 -9,39 -22,53 -14,13 -33,22 -54,22 -21,0 -40,-9 -53,-22l-1 -1zm94 -91c-10,-10 -24,-16 -40,-16 -16,0 -30,6 -40,16 -10,10 -16,24 -16,39 0,15 6,29 16,39 10,10 24,16 40,16 16,0 30,-6 40,-16 10,-10 17,-24 17,-39 0,-15 -7,-29 -17,-39zm-126 -169c-13,-14 -31,-22 -52,-22 -20,0 -38,8 -52,22 -13,13 -21,32 -21,52 0,20 8,39 21,52 14,13 32,21 52,21 21,0 39,-8 52,-21 14,-13 22,-32 22,-52 0,-20 -8,-39 -22,-52zm-52 125l0 0 0 0z"/></g><text x="0" y="692" fill="#000000" font-size="5px" font-weight="bold" font-family="'Helvetica Neue', Helvetica, Arial-Unicode, Arial, Sans-serif">Created by Hamim Jazuli</text><text x="0" y="697" fill="#000000" font-size="5px" font-weight="bold" font-family="'Helvetica Neue', Helvetica, Arial-Unicode, Arial, Sans-serif">from the Noun Project</text></svg>